<svg width="20" height="20" viewBox="0 0 20 20" fill="none" xmlns="http://www.w3.org/2000/svg">
<path d="M9.5 12.4844C9.26979 12.4844 9.07696 12.4087 8.9215 12.2574C8.7655 12.1067 8.6875 11.9197 8.6875 11.6964V3.67903L7.95625 4.38818C7.80729 4.53264 7.62123 4.60487 7.39806 4.60487C7.17435 4.60487 6.98125 4.52607 6.81875 4.36848C6.66979 4.21089 6.59531 4.02362 6.59531 3.80667C6.59531 3.59025 6.66979 3.40981 6.81875 3.26535L8.93125 1.21669C8.99896 1.15102 9.08373 1.09849 9.18556 1.0591C9.28685 1.0197 9.39167 1 9.5 1C9.60833 1 9.71342 1.0197 9.81525 1.0591C9.91654 1.09849 10.001 1.15102 10.0687 1.21669L12.1813 3.26535C12.3438 3.42294 12.425 3.61336 12.425 3.83662C12.425 4.05987 12.3438 4.24372 12.1813 4.38818C12.0188 4.53264 11.8259 4.60487 11.6027 4.60487C11.379 4.60487 11.1927 4.53264 11.0437 4.38818L10.3125 3.67903V11.6964C10.3125 11.9197 10.2348 12.1067 10.0793 12.2574C9.92331 12.4087 9.73021 12.4844 9.5 12.4844ZM4.625 18C4.17813 18 3.79571 17.8458 3.47775 17.5375C3.15925 17.2286 3 16.8575 3 16.4241V7.75666C3 7.32329 3.15925 6.95217 3.47775 6.64329C3.79571 6.33494 4.17813 6.18076 4.625 6.18076H6.25C6.48021 6.18076 6.67331 6.25614 6.82931 6.40691C6.98477 6.55819 7.0625 6.74546 7.0625 6.96871C7.0625 7.19197 6.98477 7.37897 6.82931 7.52973C6.67331 7.68102 6.48021 7.75666 6.25 7.75666H4.625V16.4241H14.375V7.75666H12.75C12.5198 7.75666 12.327 7.68102 12.1715 7.52973C12.0155 7.37897 11.9375 7.19197 11.9375 6.96871C11.9375 6.74546 12.0155 6.55819 12.1715 6.40691C12.327 6.25614 12.5198 6.18076 12.75 6.18076H14.375C14.8219 6.18076 15.2046 6.33494 15.5231 6.64329C15.841 6.95217 16 7.32329 16 7.75666V16.4241C16 16.8575 15.841 17.2286 15.5231 17.5375C15.2046 17.8458 14.8219 18 14.375 18H4.625Z" fill="black"/>
</svg>
